<svg xmlns="http://www.w3.org/2000/svg" viewBox="0 0 32 25">
  <path fill="#95909E" fill-rule="nonzero" stroke="none" d="M15.213 11.912 3.144.762C1.696-.576 0 .168 0 2.135v19.873A2.996 2.996 0 0 0 2.992 25h26.016A2.997 2.997 0 0 0 32 22.008V2.135C32 .163 30.298-.57 28.856.762l-12.069 11.15c-.423.39-1.152.39-1.574 0Zm15-9.68a.802.802 0 0 1 .217-.158.386.386 0 0 1-.258-.03.393.393 0 0 1-.203-.173.798.798 0 0 1 .031.264v19.873a.997.997 0 0 1-.992.992H2.992A.996.996 0 0 1 2 22.008V2.135a.8.8 0 0 1 .031-.265.39.39 0 0 1-.2.171.39.39 0 0 1-.263.032.81.81 0 0 1 .219.158l12.069 11.15c1.187 1.096 3.098 1.1 4.288 0L30.213 2.23Zm.66-.232V0H1.2v2h29.674Z"/>
</svg>
